<svg width="44" height="44" viewBox="0 0 44 44" fill="none" xmlns="http://www.w3.org/2000/svg">
<rect width="44" height="44" rx="22" fill="url(#paint0_radial_4150_443)"/>
<path d="M31 21.1833V18.2803C31 16.6403 31 15.8203 30.5959 15.2853C30.1918 14.7503 29.2781 14.4906 27.4507 13.9711C26.2022 13.6162 25.1016 13.1886 24.2223 12.7983C23.0234 12.2661 22.424 12 22 12C21.576 12 20.9766 12.2661 19.7777 12.7983C18.8984 13.1886 17.7978 13.6162 16.5493 13.9711C14.7219 14.4906 13.8082 14.7503 13.4041 15.2853C13 15.8203 13 16.6403 13 18.2803V21.1833C13 26.8085 18.0628 30.1835 20.594 31.5194C21.2011 31.8398 21.5046 32 22 32C22.4954 32 22.7989 31.8398 23.406 31.5194C25.9372 30.1835 31 26.8085 31 21.1833Z" fill="url(#paint1_linear_4150_443)" stroke="#FF3333" stroke-width="1.5" stroke-linecap="round"/>
<defs>
<radialGradient id="paint0_radial_4150_443" cx="0" cy="0" r="1" gradientUnits="userSpaceOnUse" gradientTransform="translate(22 22) rotate(90) scale(22)">
<stop offset="0.5" stop-color="white"/>
<stop offset="1" stop-color="#00AAFF"/>
</radialGradient>
<linearGradient id="paint1_linear_4150_443" x1="31" y1="22" x2="13" y2="22" gradientUnits="userSpaceOnUse">
<stop offset="0.1" stop-color="white"/>
<stop offset="0.5" stop-color="#FF3333"/>
<stop offset="0.9" stop-color="white"/>
</linearGradient>
</defs>
</svg>
